<svg width="97" height="104" viewBox="0 0 97 104" fill="none" xmlns="http://www.w3.org/2000/svg">
<ellipse cx="48.5" cy="52" rx="48.5" ry="52" fill="#BA63C6"/>
<path d="M32.605 59V45.4H35.365V59H32.605ZM38.3277 59V45.4H43.0277L45.4277 55.32L47.8277 45.4H52.5277V59H49.7677V48.48H49.4677L46.8077 58.4H44.0477L41.3877 48.48H41.0877V59H38.3277ZM64.1156 58.78C62.7023 59.0867 61.429 59.24 60.2956 59.24C59.1623 59.24 58.2556 59.1 57.5756 58.82C56.8956 58.54 56.3623 58.0933 55.9756 57.48C55.589 56.8667 55.3223 56.1467 55.1756 55.32C55.029 54.4933 54.9556 53.4533 54.9556 52.2C54.9556 49.5733 55.3223 47.7467 56.0556 46.72C56.8023 45.68 58.169 45.16 60.1556 45.16C61.3023 45.16 62.629 45.34 64.1356 45.7L64.0556 47.9C62.7356 47.7 61.6356 47.6 60.7556 47.6C59.889 47.6 59.269 47.72 58.8956 47.96C58.5223 48.1867 58.2423 48.6267 58.0556 49.28C57.8823 49.9333 57.7956 51.0467 57.7956 52.62C57.7956 54.1933 57.9756 55.2867 58.3356 55.9C58.709 56.5 59.4423 56.8 60.5356 56.8C61.6423 56.8 62.8156 56.7067 64.0556 56.52L64.1156 58.78Z" fill="white"/>
</svg>
